HIERARCHY
ROOT Hips
{
	OFFSET 0.00000 0.00000 0.00000
	CHANNELS 6 Xposition Yposition Zposition Zrotation Yrotation Xrotation 
	JOINT LHipJoint
	{
		OFFSET 0 0 0
		CHANNELS 3 Zrotation Yrotation Xrotation
		JOINT LeftUpLeg
		{
			OFFSET 1.86795 -1.59681 0.65681
			CHANNELS 3 Zrotation Yrotation Xrotation
			JOINT LeftLeg
			{
				OFFSET 2.30491 -6.33268 0.00000
				CHANNELS 3 Zrotation Yrotation Xrotation
				JOINT LeftFoot
				{
					OFFSET 2.46780 -6.78022 0.00000
					CHANNELS 3 Zrotation Yrotation Xrotation
					JOINT LeftToeBase
					{
						OFFSET 0.07897 -0.21698 1.59652
						CHANNELS 3 Zrotation Yrotation Xrotation
						End Site
						{
							OFFSET 0.00000 -0.00000 0.82310
						}
					}
				}
			}
		}
	}
	JOINT RHipJoint
	{
		OFFSET 0 0 0
		CHANNELS 3 Zrotation Yrotation Xrotation
		JOINT RightUpLeg
		{
			OFFSET -1.93650 -1.59681 0.65681
			CHANNELS 3 Zrotation Yrotation Xrotation
			JOINT RightLeg
			{
				OFFSET -2.29410 -6.30299 0.00000
				CHANNELS 3 Zrotation Yrotation Xrotation
				JOINT RightFoot
				{
					OFFSET -2.48738 -6.83403 0.00000
					CHANNELS 3 Zrotation Yrotation Xrotation
					JOINT RightToeBase
					{
						OFFSET -0.08699 -0.23899 1.89395
						CHANNELS 3 Zrotation Yrotation Xrotation
						End Site
						{
							OFFSET -0.00000 -0.00000 0.96904
						}
					}
				}
			}
		}
	}
	JOINT LowerBack
	{
		OFFSET 0 0 0
		CHANNELS 3 Zrotation Yrotation Xrotation
		JOINT Spine
		{
			OFFSET 0.03629 1.99740 -0.07548
			CHANNELS 3 Zrotation Yrotation Xrotation
			JOINT Spine1
			{
				OFFSET 0.03970 1.94298 0.17218
				CHANNELS 3 Zrotation Yrotation Xrotation
				JOINT Neck
				{
					OFFSET 0 0 0
					CHANNELS 3 Zrotation Yrotation Xrotation
					JOINT Neck1
					{
						OFFSET -0.05054 1.79469 0.04241
						CHANNELS 3 Zrotation Yrotation Xrotation
						JOINT Head
						{
							OFFSET 0.05195 1.78475 -0.22133
							CHANNELS 3 Zrotation Yrotation Xrotation
							End Site
							{
								OFFSET 0.02420 1.80711 -0.07950
							}
						}
					}
				}
				JOINT LeftShoulder
				{
					OFFSET 0 0 0
					CHANNELS 3 Zrotation Yrotation Xrotation
					JOINT LeftArm
					{
						OFFSET 2.92134 1.19850 0.36056
						CHANNELS 3 Zrotation Yrotation Xrotation
						JOINT LeftForeArm
						{
							OFFSET 4.84137 -0.00000 0.00000
							CHANNELS 3 Zrotation Yrotation Xrotation
							JOINT LeftHand
							{
								OFFSET 3.24520 -0.00000 -0.00000
								CHANNELS 3 Zrotation Yrotation Xrotation
								JOINT LeftFingerBase
								{
									OFFSET 0 0 0
									CHANNELS 3 Zrotation Yrotation Xrotation
									JOINT LeftHandIndex1
									{
										OFFSET 0.52122 -0.00000 0.00000
										CHANNELS 3 Zrotation Yrotation Xrotation
										End Site
										{
											OFFSET 0.42022 -0.00000 0.00000
										}
									}
								}
								JOINT LThumb
								{
									OFFSET 0 0 0
									CHANNELS 3 Zrotation Yrotation Xrotation
									End Site
									{
										OFFSET 0.42664 -0.00000 0.42664
									}
								}
							}
						}
					}
				}
				JOINT RightShoulder
				{
					OFFSET 0 0 0
					CHANNELS 3 Zrotation Yrotation Xrotation
					JOINT RightArm
					{
						OFFSET -2.84327 1.20795 0.50191
						CHANNELS 3 Zrotation Yrotation Xrotation
						JOINT RightForeArm
						{
							OFFSET -4.72284 -0.00000 0.00000
							CHANNELS 3 Zrotation Yrotation Xrotation
							JOINT RightHand
							{
								OFFSET -3.23459 -0.00000 0.00000
								CHANNELS 3 Zrotation Yrotation Xrotation
								JOINT RightFingerBase
								{
									OFFSET 0 0 0
									CHANNELS 3 Zrotation Yrotation Xrotation
									JOINT RightHandIndex1
									{
										OFFSET -0.30742 -0.00000 0.00000
										CHANNELS 3 Zrotation Yrotation Xrotation
										End Site
										{
											OFFSET -0.24785 -0.00000 0.00000
										}
									}
								}
								JOINT RThumb
								{
									OFFSET 0 0 0
									CHANNELS 3 Zrotation Yrotation Xrotation
									End Site
									{
										OFFSET -0.25163 -0.00000 0.25163
									}
								}
							}
						}
					}
				}
			}
		}
	}
}
MOTION
Frames: 7
Frame Time: .0083333
1.7936 17.9446 1.9071 -0.2803 -8.6466 -709.7560 0.0000 0.0000 0.0000 -26.8979 -18.5370 2.4662 1.0013 6.3678 17.8553 3.1419 14.8377 32.2048 1.9003 8.6552 24.7225 0.0000 0.0000 0.0000 20.2575 31.3679 -15.5092 -2.3160 -9.4955 27.3579 -1.5894 -7.4410 22.5751 -0.5637 4.8090 -13.3645 2.1014 -2.9847 -9.8045 7.2959 -3.8305 -12.3195 6.4844 -1.7734 -7.2319 0.5360 8.2050 2.5392 -2.4845 10.7530 -12.2329 -1.3890 5.3574 -4.2965 -0.0000 0.0000 0.0000 -12.5441 0.4928 -15.3360 32.1862 -42.6951 -12.8669 -0.0000 -0.0000 29.0986 -47.7249 19.6479 -20.2966 -7.1250 0.0000 -0.0000 -56.8010 39.6025 13.2521 -0.0000 0.0000 0.0000 0.2394 -10.1508 -41.3404 -16.9389 26.7772 -4.0598 0.0000 -0.0000 -21.4532 -18.6985 19.0325 -6.2983 7.1250 -0.0000 -0.0000 6.1763 -10.0610 5.0325
1.8009 17.9487 1.9143 -0.3484 -8.6593 -709.7270 0.0000 0.0000 0.0000 -26.8537 -18.7141 2.5222 0.9989 6.3602 17.8332 3.1815 15.1017 32.4315 2.1100 9.0915 26.0820 0.0000 0.0000 0.0000 20.2868 31.5030 -15.4703 -2.3121 -9.4879 27.3339 -1.5948 -7.4083 22.6151 -0.5606 4.7957 -13.3269 2.1112 -2.9907 -9.7570 7.3987 -3.8304 -12.3589 6.5983 -1.7678 -7.2987 0.3562 8.3337 2.9053 -2.5637 10.9022 -12.9484 -1.4444 5.4359 -4.6351 0.0000 0.0000 0.0000 -12.6539 0.6489 -15.6240 32.2924 -42.7791 -12.9390 -0.0000 -0.0000 29.1411 -47.9368 19.7833 -20.5596 -7.1250 0.0000 -0.0000 -56.9516 39.6626 13.1822 0.0000 0.0000 0.0000 0.3067 -10.0602 -41.6652 -16.9048 26.7320 -4.0444 0.0000 -0.0000 -21.3795 -18.6248 18.9170 -6.2355 7.1250 -0.0000 -0.0000 6.2179 -10.1898 5.0505
1.8050 17.9461 1.9121 -0.6335 -8.5650 -709.6700 0.0000 0.0000 0.0000 -26.4732 -18.7617 2.4008 1.0091 6.3916 17.9250 3.1238 15.6272 32.1959 2.2625 9.3926 27.0314 0.0000 0.0000 0.0000 20.5958 31.5739 -15.4019 -2.2933 -9.4520 27.2197 -1.6484 -7.4511 23.0008 -0.6074 4.9883 -13.8753 2.2563 -3.0086 -9.5422 7.5687 -3.8347 -12.4576 6.7273 -1.7680 -7.5324 0.4233 8.3724 3.0610 -2.8517 10.9241 -13.2338 -1.5726 5.4558 -4.7487 0.0000 0.0000 0.0000 -12.7995 0.9115 -15.7282 32.5254 -42.9621 -13.0975 -0.0000 -0.0000 29.1081 -47.8557 20.0466 -20.7456 -7.1250 0.0000 -0.0000 -57.2132 39.9344 12.5784 0.0000 0.0000 0.0000 0.3293 -10.0102 -41.8490 -16.8120 26.6092 -4.0027 0.0000 -0.0000 -21.4598 -18.7482 18.9836 -6.3006 7.1250 -0.0000 -0.0000 6.1413 -10.1053 4.9981
1.8078 17.9421 1.9080 -0.9199 -8.4878 -709.5780 0.0000 0.0000 0.0000 -26.0702 -18.7515 2.2087 1.0223 6.4320 18.0431 3.1172 15.1519 32.1106 1.9043 8.6639 24.7495 0.0000 0.0000 0.0000 20.8849 31.6828 -15.3840 -2.2737 -9.4143 27.1001 -1.6993 -7.8534 23.3547 -0.6004 4.9600 -13.7945 2.4451 -2.9939 -9.4346 7.6769 -3.8080 -12.5007 6.7529 -1.7618 -7.6525 0.6165 8.3756 2.9954 -3.2070 10.8976 -13.4464 -1.7253 5.4500 -4.7799 -0.0000 0.0000 0.0000 -12.8464 0.9689 -15.9570 32.6930 -43.0927 -13.2119 -0.0000 -0.0000 29.1528 -48.0281 20.4750 -21.2498 -7.1250 0.0000 -0.0000 -57.6670 40.2795 11.8710 -0.0000 0.0000 0.0000 0.4951 -10.0546 -42.0012 -16.7101 26.4741 -3.9572 0.0000 -0.0000 -21.6009 -19.1220 19.1387 -6.4851 7.1250 -0.0000 -0.0000 5.9073 -9.8964 4.8306
1.8123 17.9504 1.9096 -1.0873 -8.4347 -709.4490 0.0000 0.0000 0.0000 -25.8238 -18.9030 2.0343 1.0370 6.4768 18.1744 3.1842 14.6031 32.3985 1.8324 8.5080 24.2680 0.0000 0.0000 0.0000 20.9831 31.8151 -15.4843 -2.2560 -9.3801 26.9917 -1.7242 -8.3431 23.5261 -0.5171 4.6090 -12.7967 2.6234 -2.9569 -9.4668 7.6776 -3.7652 -12.5249 6.6554 -1.7542 -7.6783 0.6682 8.4636 2.6230 -3.1633 11.0210 -13.4170 -1.7001 5.5045 -4.6910 -0.0000 -0.0000 0.0000 -12.7334 0.7317 -16.4252 32.6338 -43.0467 -13.1714 -0.0000 -0.0000 29.4406 -48.4062 20.6315 -21.6508 -7.1250 0.0000 -0.0000 -57.8582 40.3102 11.8965 -0.0000 -0.0000 0.0000 0.8038 -10.2164 -42.1773 -16.6465 26.3893 -3.9289 0.0000 -0.0000 -21.6943 -19.4479 19.1329 -6.6015 7.1250 -0.0000 -0.0000 5.6953 -9.8598 4.6597
1.8188 17.9626 1.9148 -1.1041 -8.3130 -709.3410 0.0000 0.0000 0.0000 -25.7188 -19.1010 1.8935 1.0471 6.5074 18.2639 3.1705 15.1781 32.3836 2.2979 9.4607 27.2475 0.0000 0.0000 0.0000 20.9227 31.8892 -15.5913 -2.2414 -9.3517 26.9018 -1.7291 -9.0806 23.5715 -0.3784 3.9504 -10.9373 2.6532 -2.9570 -9.4595 7.6529 -3.7610 -12.6075 6.6201 -1.7533 -7.7800 0.7474 8.5868 2.3221 -3.0562 11.2010 -13.3759 -1.6643 5.5825 -4.6137 0.0000 0.0000 0.0000 -12.6361 0.5645 -16.8049 32.5920 -43.0141 -13.1429 -0.0000 -0.0000 29.6997 -48.3559 20.3402 -21.3504 -7.1250 0.0000 -0.0000 -57.5497 40.0537 12.4485 0.0000 0.0000 0.0000 1.1077 -10.5402 -41.9425 -16.7018 26.4630 -3.9535 0.0000 -0.0000 -22.1897 -19.4209 18.9259 -6.5236 7.1250 -0.0000 -0.0000 5.7004 -10.0784 4.6385
1.8251 17.9694 1.9192 -1.1637 -8.2037 -709.2490 0.0000 0.0000 0.0000 -25.5704 -19.2363 1.7917 1.0505 6.5174 18.2933 3.0981 15.7795 32.0834 2.4606 9.7659 28.2219 0.0000 0.0000 0.0000 20.9468 31.8758 -15.6680 -2.2328 -9.3349 26.8488 -1.7503 -9.6270 23.7369 -0.2614 3.2890 -9.0844 2.6396 -2.9761 -9.3851 7.7096 -3.7722 -12.7063 6.7045 -1.7514 -7.9300 0.9596 8.6445 2.5584 -3.3586 11.2551 -13.8664 -1.8379 5.6095 -4.8081 -0.0000 0.0000 0.0000 -12.6577 0.6497 -16.9573 32.6998 -43.0981 -13.2165 -0.0000 -0.0000 29.7481 -48.3044 20.0339 -21.0347 -7.1250 0.0000 -0.0000 -57.2294 39.7818 13.0252 -0.0000 0.0000 0.0000 1.2915 -10.6791 -41.7834 -16.6889 26.4458 -3.9478 0.0000 -0.0000 -22.3756 -19.5482 19.0821 -6.6212 7.1250 -0.0000 -0.0000 5.6271 -9.8993 4.5987
